<svg width="148" height="38" viewBox="0 0 148 38" fill="none" xmlns="http://www.w3.org/2000/svg">
<g clip-path="url(#clip0_4069_1080)">
<rect width="35" height="38" transform="translate(0.814453)" fill="white"/>
<path d="M25.8325 32.75L25.5389 32.3125C25.3767 32.0725 25.271 31.6775 25.3626 31L26.3095 30.09C26.8287 29.59 27.1881 29.11 27.1059 29.0275C27.026 28.9425 26.5467 29.3525 25.1277 31L24.3219 31.685C23.4549 32.4225 23.0532 32.3525 23.4643 31.5375C23.8003 30.8675 23.422 30.6175 22.588 30.96C22.2403 31.1025 21.6647 31.2825 20.6639 31.5L17.3747 32L15.9651 32L15.8593 31.8175C15.8006 31.72 16.1718 31.55 17.6096 31.25L20.8988 30.5L22.0735 29.75C25.1348 27.3225 26.2883 25.7 27.0354 23.6875L27.4771 22.5L28.0057 23.0625C28.297 23.37 28.8257 23.7075 29.8265 24C29.0465 26.8775 29.2438 26.825 30.0614 25.04L30.7663 23.5V23.25L31.2361 22.5L31.4711 23C30.3175 27.8675 28.633 30.565 26.7135 32.0625L25.8325 32.75ZM28.8468 27C28.7552 26.705 28.4169 26.9325 28.4169 27.2925C28.4169 27.4075 28.4873 27.5 28.5743 27.5C28.6588 27.5 28.7763 27.45 28.8327 27.39C28.8891 27.33 28.8961 27.155 28.8468 27Z" fill="#145460" fill-opacity="0.968627"/>
<path d="M7.03734 27L8.74066 28.8125C9.29042 29.3975 10.0305 30.015 11.0313 30.5L11.6774 31.0625C12.0322 31.3725 12.6148 31.71 13.6157 32L15.4952 32.5H17.8446L19.2542 32.25L19.2989 32.8125C19.3247 33.1225 19.3505 33.46 19.3599 33.5625C19.3787 33.8525 20.8307 33.34 20.9364 33.0075C21.075 32.56 22.1769 32.945 23.2482 34.25C15.0582 36.8825 7.49078 32.535 5.62066 25.75C4.99102 23.4675 5.24945 23.3 6.23855 25.35L7.03734 27Z" fill="#162330" fill-opacity="0.976471"/>
<path d="M7.03734 26C6.19391 24.4 5.93078 23.555 5.90728 23.0925L5.86265 22.25V19.75C5.88379 18.1325 7.11957 14.41 7.68343 13.4825L7.9771 13H8.44698L8.32716 13.4375C8.08988 14.2975 8.30367 14.61 9.1518 13.5L9.23403 13.9375C9.30216 14.3025 9.37969 14.3225 10.0916 13.75L10.5614 14.5L11.2663 15.25L12.206 16.5L11.0313 19L9.62168 17.5L9.1518 16.75L9.18 16.1625C9.19644 15.8325 9.04373 15.51 8.82759 15.42C8.3765 15.2375 8.33421 15.71 8.91686 18C8.14861 21.1275 8.13216 21.5525 8.38825 22.9225L8.68192 24.5L7.91837 24.735C7.22295 24.9475 7.18066 25.015 7.74216 26V26.25L7.03734 26Z" fill="#145460" fill-opacity="0.968627"/>
<path d="M18.0795 28.75L17.8446 23.25L18.0795 21.5L18.5494 20.5L19.1461 21.1875C19.7076 21.8325 19.7664 21.8475 20.4289 21L21.1925 20.23C21.613 19.8075 22.5645 19.0775 24.6578 17.75L25.1864 17.3675C26.1215 16.6925 27.0425 14.9625 27.2422 12.5L27.6251 13.0625C27.8342 13.3725 28.1514 13.8775 28.6518 14.75L27.0072 17C21.0632 20.815 20.3678 21.47 19.4868 23.9C19.1931 24.7125 18.8102 26.2475 18.634 27.3125L18.3145 29.25L18.0795 28.75Z" fill="#145460" fill-opacity="0.968627"/>
<path d="M19.4892 7.75L19.7828 7.6875C19.9449 7.6525 20.0507 7.3725 19.959 6.5V4.75C20.6521 5.6225 21.2324 6.24 21.6976 6.6875L22.5434 7.5L22.3084 8L22.7783 9.25L25.1277 11.25L25.3885 11.9775C25.5788 12.5125 25.5788 12.8475 25.1277 13.75C24.1269 12.3975 23.6499 12.005 23.4244 12.0025C23.1989 12 23.0132 11.8925 23.0132 11.7625C23.0132 11.6325 22.5645 11.2125 22.0148 10.825C21.465 10.44 20.6732 9.59 20.2527 8.9375L19.4892 7.75ZM21.4861 9C21.1525 8.705 21.0069 8.905 21.2559 9.3125C21.317 9.415 21.4744 9.5 21.6036 9.5C21.7328 9.5 21.8385 9.4575 21.8385 9.405C21.8385 9.3525 21.6811 9.17 21.4861 9Z" fill="#145460" fill-opacity="0.968627"/>
<path d="M11.0313 19L12.206 16.5L16.2 19.5L16.1413 20.73C16.1084 21.405 16.0026 22.135 15.7301 22.75C15.0934 22.0725 14.0362 21.2275 12.9696 20.4375L11.0313 19Z" fill="#163847" fill-opacity="0.976471"/>
<path d="M27.4771 22.5C27.456 22.015 27.4818 21.37 27.5194 20.75C27.5593 20.1325 27.4583 19.035 27.2985 18.3125L27.0072 17L28.6518 14.75L29.3566 16.75L29.0629 17.3125C28.3816 18.6175 28.7434 21.3725 30.0614 21.75C30.2846 22.6225 30.4444 22.96 30.5595 23.0625L30.7663 23.25V23.5L29.8265 24C28.8257 23.7075 28.297 23.37 28.0057 23.0625L27.4771 22.5Z" fill="#167782" fill-opacity="0.976471"/>
<path d="M13.6157 31.75L12.7346 31.0925C12.2507 30.73 11.668 30.4475 11.0313 30.5C10.0305 30.015 9.29042 29.3975 8.74066 28.8125L7.74216 27.75L7.50722 27V26.75L7.74216 26.25V26L8.68192 25.25C10.4957 28.335 12.5161 30.135 14.1443 30.795L15.2602 31.25L14.3205 31.75H13.6157Z" fill="#199399" fill-opacity="0.968627"/>
<path d="M23.953 15.75C24.2255 15.395 24.491 14.945 24.7166 14.5225L25.1277 13.75C25.5788 12.8475 25.5788 12.5125 25.3885 11.9775L25.1277 11.25L25.5976 10.5L26.3024 10.75L27.2422 12.5C27.0425 14.9625 26.1215 16.6925 25.1864 17.3675L24.6578 17.75L24.4558 17.5625C24.3454 17.46 24.1856 17.01 23.953 15.75Z" fill="#0CCEC6" fill-opacity="0.988235"/>
<path d="M23.2482 34.25C22.1769 32.945 21.075 32.56 20.9364 33.0075C20.8307 33.34 19.3787 33.8525 19.3599 33.5625C19.3505 33.46 19.3247 33.1225 19.2989 32.8125L19.2542 32.25L20.6639 31.5C21.6647 31.2825 22.2403 31.1025 22.588 30.96C23.422 30.6175 23.8003 30.8675 23.4643 31.5375C23.0532 32.3525 23.4549 32.4225 24.3219 31.685L25.1277 31H25.3626C25.271 31.6775 25.3767 32.0725 25.5389 32.3125L25.8325 32.75C25.3697 33.235 24.7894 33.5725 24.242 33.8125L23.2482 34.25Z" fill="#163847" fill-opacity="0.976471"/>
<path d="M19.2542 19.5C20.0976 18.435 21.1549 17.59 22.1487 16.9375L23.953 15.75C24.1856 17.01 24.3454 17.46 24.4558 17.5625L24.6578 17.75C22.5645 19.0775 21.613 19.8075 21.1925 20.23L20.4289 21L20.0272 20.6875C19.804 20.515 19.5408 20.1775 19.2542 19.5Z" fill="#199399" fill-opacity="0.968627"/>
<path d="M17.3747 27L15.7301 22.75C16.0026 22.135 16.1084 21.405 16.1413 20.73L16.2 19.5L17.6096 21.75V23.25V26.25L17.3747 27Z" fill="#162330" fill-opacity="0.976471"/>
<path d="M11.5012 10V9.5C11.6445 9.4575 11.8395 9.3175 12.0275 9.16C12.2154 9.0025 12.7558 8.565 13.228 8.1875L14.0855 7.5L14.2476 8.1875C14.5484 9.4575 14.6118 9.5075 16.2 8.75L14.5554 10.5L14.3792 10.2775C14.2805 10.1525 13.759 10.26 13.181 10.5275C12.1708 10.995 12.1567 10.995 11.5012 10Z" fill="#964C3A" fill-opacity="0.968627"/>
<path d="M15.0253 5.75C15.7442 4.3225 16.0238 3.2275 16.1131 2.395C16.3715 -0.0424995 16.8014 1.5525 16.7286 4.6875L16.6699 7.25L16.5994 6.9375C16.5571 6.745 16.4702 6.795 16.3739 7.0625C16.1178 7.765 15.7301 7.5675 15.7301 6.7325C15.7301 6.265 15.5915 5.9225 15.0253 5.75Z" fill="#EF8738" fill-opacity="0.976471"/>
<path d="M29.3566 16.75C30.0497 18.3325 30.1601 19.1125 30.1202 20.1875L30.0614 21.75C28.7434 21.3725 28.3816 18.6175 29.0629 17.3125L29.3566 16.75Z" fill="#199399" fill-opacity="0.968627"/>
<path d="M14.0855 7.5C14.4755 6.92 14.539 6.75 14.4779 6.75C14.4168 6.75 14.5155 6.525 14.6964 6.25L15.0253 5.75C15.5915 5.9225 15.7301 6.265 15.7301 6.7325C15.7301 7.5675 16.1178 7.765 16.3739 7.0625C16.4702 6.795 16.5571 6.745 16.5994 6.9375L16.6699 7.25C16.7122 7.735 16.6064 8.0725 16.4608 8.3125L16.2 8.75C14.6118 9.5075 14.5484 9.4575 14.2476 8.1875L14.0855 7.5Z" fill="#D37542" fill-opacity="0.988235"/>
<path d="M22.7783 9.25L22.3084 8L22.5434 7.5C24.834 8.8975 25.2992 9.3525 25.4214 9.825L25.5976 10.5L25.1277 11.25L22.7783 9.25Z" fill="#199399" fill-opacity="0.968627"/>
<path d="M10.0916 13.5V11.25L11.2663 10.25L11.4425 11.1775C11.5388 11.6875 11.7502 12.1375 12.206 12.25L11.2663 14L11.0901 13.8125C10.9937 13.71 10.7282 13.5975 10.0916 13.5Z" fill="#5B3A35" fill-opacity="0.968627"/>
<path d="M15.9651 16C15.6314 12.11 16.1765 11 17.2784 11C17.5697 11 17.3113 12.3675 16.9706 12.635C16.6722 12.8675 16.5782 13.255 16.6182 14.1L16.6699 15.25L15.9651 16Z" fill="#145460" fill-opacity="0.968627"/>
<path d="M28.6518 14.75C28.1514 13.8775 27.8342 13.3725 27.6251 13.0625L27.2422 12.5L26.3024 10.75C26.3095 10.265 26.6901 10.63 27.1505 11.25C27.611 11.87 28.0879 12.4875 28.2078 12.625C28.8773 13.385 29.8265 15.145 29.8265 15.6275C29.8265 16.16 29.8007 16.155 29.2392 15.4675L28.6518 14.75Z" fill="#199399" fill-opacity="0.968627"/>
<path d="M19.0193 6.5L18.7843 5V2H19.0193L19.959 4.75V6.5L19.7241 6.7875C19.5455 7.005 19.4328 7.005 19.0193 6.5Z" fill="#162330" fill-opacity="0.976471"/>
<path d="M11.2663 10.25V10H11.5012C12.1567 10.995 12.1708 10.995 13.181 10.5275C13.759 10.26 14.2805 10.1525 14.3792 10.2775L14.5554 10.5L12.206 12.25C11.7502 12.1375 11.5388 11.6875 11.4425 11.1775L11.2663 10.25Z" fill="#703F35" fill-opacity="0.976471"/>
<path d="M19.0193 15V13.25L19.2542 13H19.7241V15.75L19.0193 15Z" fill="#199399" fill-opacity="0.968627"/>
<path d="M17.8446 28.75L17.6096 28V26.25V23.25H17.8446L18.0795 28.75H17.8446Z" fill="#91A0A5" fill-opacity="0.976471"/>
<path d="M9.1518 13.5L9.41259 12.815C9.60054 12.315 9.60054 12.1125 9.1518 12V11.5L9.38674 11.25L10.0916 11.25V13.5V13.75C9.37969 14.3225 9.30216 14.3025 9.23403 13.9375L9.1518 13.5Z" fill="#167782" fill-opacity="0.976471"/>
<path d="M18.5494 20.5L19.2542 19.5C19.5408 20.1775 19.804 20.515 20.0272 20.6875L20.4289 21C19.7664 21.8475 19.7076 21.8325 19.1461 21.1875L18.5494 20.5Z" fill="#167782" fill-opacity="0.976471"/>
<path d="M11.0313 30.5C11.668 30.4475 12.2507 30.73 12.7346 31.0925L13.6157 31.75V32C12.6148 31.71 12.0322 31.3725 11.6774 31.0625L11.0313 30.5Z" fill="#167782" fill-opacity="0.976471"/>
<path d="M19.2542 11.5L18.9934 12.0425C18.8055 12.4375 18.8055 12.64 19.2542 13L19.0193 13.25C17.8775 12.06 17.9033 10.8925 18.587 11.0825C18.8666 11.16 19.1297 11.285 19.1743 11.3625L19.2542 11.5Z" fill="#D37542" fill-opacity="0.988235"/>
<path d="M8.68192 24.5V25.25L7.74216 26C7.18066 25.015 7.22295 24.9475 7.91837 24.735L8.68192 24.5Z" fill="#167782" fill-opacity="0.976471"/>
<path d="M16.4349 16.25L16.9048 15.5L18.0795 16L17.8446 17.25L16.4349 16.25Z" fill="#199399" fill-opacity="0.968627"/>
<path d="M9.1518 16.75L9.1518 17.5L8.91686 18C8.33421 15.71 8.3765 15.2375 8.82759 15.42C9.04373 15.51 9.19644 15.8325 9.18 16.1625L9.1518 16.75Z" fill="#163847" fill-opacity="0.976471"/>
<path d="M14.3205 31.75L15.2602 31.25H17.6096C16.1718 31.55 15.8006 31.72 15.8593 31.8175L15.9651 32L15.4952 32L14.3205 31.75Z" fill="#167782" fill-opacity="0.976471"/>
<path d="M17.8446 17.25L18.0795 16L18.5494 15.75L19.2542 16.25L17.8446 17.25Z" fill="#145460" fill-opacity="0.968627"/>
<path d="M19.2542 11.5C19.71 12.0475 19.8157 12.385 19.7828 12.6025L19.7241 13H19.2542C18.8055 12.64 18.8055 12.4375 18.9934 12.0425L19.2542 11.5Z" fill="#EF8738" fill-opacity="0.976471"/>
<path d="M8.44698 13L8.91686 12.5L9.1518 13.5C8.30367 14.61 8.08988 14.2975 8.32716 13.4375L8.44698 13Z" fill="#163847" fill-opacity="0.976471"/>
<path d="M9.38674 11.25L11.0313 9.75L11.2663 10V10.25L10.0916 11.25L9.38674 11.25Z" fill="#199399" fill-opacity="0.968627"/>
<path d="M15.4952 32.5V32L15.9651 32L17.3747 32L17.8446 32.5H15.4952Z" fill="#91A0A5" fill-opacity="0.337255"/>
<path d="M25.1277 31C26.5467 29.3525 27.026 28.9425 27.1059 29.0275C27.1881 29.11 26.8287 29.59 26.3095 30.09L25.3626 31H25.1277Z" fill="#91A0A5" fill-opacity="0.337255"/>
<path d="M19.0193 6.5C19.4328 7.005 19.5455 7.005 19.7241 6.7875L19.959 6.5C20.0507 7.3725 19.9449 7.6525 19.7828 7.6875L19.4892 7.75L19.0193 6.5Z" fill="#163847" fill-opacity="0.976471"/>
<path d="M31.4711 23L31.2361 22.5C31.2361 20.8525 31.2972 20.715 31.5204 20.9525C31.706 21.15 31.746 21.56 31.6379 22.1275L31.4711 23Z" fill="#91A0A5" fill-opacity="0.337255"/>
<path d="M18.7843 1.25V2V5V1.25Z" fill="#91A0A5" fill-opacity="0.337255"/>
<path d="M18.5494 15.75L19.0193 15L19.7241 15.75L19.2542 16.25L18.5494 15.75Z" fill="#167782" fill-opacity="0.976471"/>
<path d="M10.5614 14.5L10.0916 13.75V13.5C10.7282 13.5975 10.9937 13.71 11.0901 13.8125L11.2663 14V14.25L11.076 14.4825C10.9726 14.61 10.8152 14.6675 10.5614 14.5Z" fill="#4F545B" fill-opacity="0.917647"/>
<path d="M7.9771 13L9.1518 11.5V12L8.91686 12.5L8.44698 13H7.9771Z" fill="#199399" fill-opacity="0.968627"/>
<path d="M9.1518 13.5L8.91686 12.5L9.1518 12C9.60054 12.1125 9.60054 12.315 9.41259 12.815L9.1518 13.5Z" fill="#145460" fill-opacity="0.968627"/>
<path d="M20.8988 30.5C21.0045 30.015 21.2676 29.8475 21.5543 29.8125L22.0735 29.75L20.8988 30.5Z" fill="#91A0A5" fill-opacity="0.337255"/>
<path d="M17.6096 28L17.3747 27L17.6096 26.25V28Z" fill="#145460" fill-opacity="0.968627"/>
<path d="M17.6096 23.25V21.75L18.0795 21.5L17.8446 23.25H17.6096Z" fill="#91A0A5" fill-opacity="0.337255"/>
<path d="M10.5614 14.5C10.8152 14.6675 10.9726 14.61 11.076 14.4825L11.2663 14.25V15.25L10.5614 14.5Z" fill="#91A0A5" fill-opacity="0.976471"/>
<path d="M17.8446 28.75H18.0795L18.3145 29.25C18.1359 30.005 18.0701 29.935 17.9761 29.4375L17.8446 28.75Z" fill="#91A0A5" fill-opacity="0.337255"/>
<path d="M15.9651 16L16.6699 15.25L16.9048 15.5L16.4349 16.25L15.9651 16Z" fill="#167782" fill-opacity="0.976471"/>
<path d="M7.03734 26L7.74216 26.25L7.50722 26.75L7.03734 26Z" fill="#167782" fill-opacity="0.976471"/>
<path d="M9.1518 17.5L9.1518 16.75L9.62168 17.5H9.1518Z" fill="#91A0A5" fill-opacity="0.976471"/>
<path d="M7.03734 27H7.50722L7.74216 27.75L7.03734 27Z" fill="#4F545B" fill-opacity="0.917647"/>
<path d="M28.8468 27C28.8961 27.155 28.8891 27.33 28.8327 27.39C28.7763 27.45 28.6588 27.5 28.5743 27.5C28.4873 27.5 28.4169 27.4075 28.4169 27.2925C28.4169 26.9325 28.7552 26.705 28.8468 27Z" fill="#91A0A5" fill-opacity="0.976471"/>
<path d="M21.4861 9C21.6811 9.17 21.8385 9.3525 21.8385 9.405C21.8385 9.4575 21.7328 9.5 21.6036 9.5C21.4744 9.5 21.317 9.415 21.2559 9.3125C21.0069 8.905 21.1525 8.705 21.4861 9Z" fill="#163847" fill-opacity="0.976471"/>
<path d="M18.7843 2V1.25L19.0193 2H18.7843Z" fill="#4F545B" fill-opacity="0.917647"/>
<path d="M11.2663 10L11.0313 9.75L11.5012 9.5V10H11.2663Z" fill="#91A0A5" fill-opacity="0.976471"/>
</g>
<path d="M38.6549 31V7.94516H42.1334V17.9641H53.6271V7.94516H57.1168V31H53.6271V20.9473H42.1334V31H38.6549ZM69.3647 31.349C67.6611 31.349 66.1939 30.985 64.9631 30.257C63.7398 29.5215 62.7942 28.4896 62.1263 27.1613C61.4659 25.8254 61.1356 24.2607 61.1356 22.467C61.1356 20.6959 61.4659 19.1349 62.1263 17.784C62.7942 16.4331 63.7248 15.3787 64.9181 14.6207C66.1188 13.8627 67.5223 13.4837 69.1283 13.4837C70.1039 13.4837 71.0495 13.6451 71.9651 13.9678C72.8807 14.2905 73.7025 14.7971 74.4304 15.4875C75.1584 16.178 75.7325 17.0748 76.1528 18.178C76.5731 19.2737 76.7832 20.6058 76.7832 22.1743V23.3676H63.0381V20.846H73.4848C73.4848 19.9604 73.3047 19.1761 72.9445 18.4932C72.5843 17.8028 72.0777 17.2587 71.4248 16.8609C70.7793 16.4631 70.0214 16.2643 69.1508 16.2643C68.2052 16.2643 67.3797 16.4969 66.6742 16.9622C65.9763 17.42 65.4359 18.0204 65.0532 18.7634C64.6779 19.4988 64.4903 20.2981 64.4903 21.1612V23.1312C64.4903 24.2869 64.6929 25.2701 65.0982 26.0806C65.511 26.8911 66.0851 27.5103 66.8205 27.938C67.556 28.3583 68.4153 28.5684 69.3985 28.5684C70.0364 28.5684 70.618 28.4784 71.1433 28.2983C71.6687 28.1106 72.1227 27.833 72.5055 27.4652C72.8882 27.0975 73.1809 26.6434 73.3835 26.1031L76.5693 26.6772C76.3142 27.6153 75.8564 28.4371 75.1959 29.1426C74.543 29.8405 73.7212 30.3846 72.7306 30.7749C71.7475 31.1576 70.6255 31.349 69.3647 31.349ZM83.8837 7.94516V31H80.5178V7.94516H83.8837ZM107.831 15.4425H104.318C104.183 14.692 103.932 14.0316 103.564 13.4612C103.196 12.8908 102.746 12.4068 102.213 12.009C101.68 11.6113 101.084 11.3111 100.423 11.1084C99.7705 10.9058 99.0763 10.8045 98.3408 10.8045C97.0125 10.8045 95.823 11.1385 94.7723 11.8064C93.7291 12.4743 92.9036 13.4537 92.2957 14.7445C91.6953 16.0354 91.3951 17.6114 91.3951 19.4726C91.3951 21.3488 91.6953 22.9323 92.2957 24.2231C92.9036 25.514 93.7329 26.4896 94.7836 27.15C95.8342 27.8104 97.0162 28.1407 98.3296 28.1407C99.0576 28.1407 99.748 28.0431 100.401 27.848C101.061 27.6453 101.658 27.3489 102.191 26.9586C102.724 26.5684 103.174 26.0918 103.542 25.529C103.917 24.9586 104.176 24.3057 104.318 23.5702L107.831 23.5815C107.643 24.7147 107.279 25.7579 106.739 26.711C106.206 27.6566 105.519 28.4746 104.679 29.1651C103.846 29.848 102.893 30.3771 101.819 30.7523C100.746 31.1276 99.5754 31.3152 98.3071 31.3152C96.3108 31.3152 94.5321 30.8424 92.9711 29.8968C91.4101 28.9437 90.1793 27.5815 89.2788 25.8104C88.3857 24.0393 87.9391 21.9267 87.9391 19.4726C87.9391 17.011 88.3894 14.8984 89.29 13.1347C90.1906 11.3636 91.4214 10.0052 92.9824 9.05962C94.5434 8.10651 96.3183 7.62995 98.3071 7.62995C99.5304 7.62995 100.671 7.80632 101.729 8.15905C102.795 8.50427 103.752 9.01459 104.6 9.69003C105.448 10.358 106.15 11.176 106.705 12.1441C107.26 13.1047 107.636 14.2042 107.831 15.4425ZM119.006 31.349C117.385 31.349 115.971 30.9775 114.762 30.2345C113.554 29.4915 112.616 28.4521 111.948 27.1162C111.28 25.7804 110.946 24.2194 110.946 22.4332C110.946 20.6396 111.28 19.0711 111.948 17.7277C112.616 16.3843 113.554 15.3412 114.762 14.5982C115.971 13.8552 117.385 13.4837 119.006 13.4837C120.627 13.4837 122.042 13.8552 123.25 14.5982C124.459 15.3412 125.397 16.3843 126.065 17.7277C126.733 19.0711 127.067 20.6396 127.067 22.4332C127.067 24.2194 126.733 25.7804 126.065 27.1162C125.397 28.4521 124.459 29.4915 123.25 30.2345C122.042 30.9775 120.627 31.349 119.006 31.349ZM119.018 28.5234C120.068 28.5234 120.939 28.2457 121.629 27.6904C122.32 27.135 122.83 26.3958 123.16 25.4727C123.498 24.5496 123.667 23.5327 123.667 22.422C123.667 21.3188 123.498 20.3056 123.16 19.3825C122.83 18.4519 122.32 17.7052 121.629 17.1423C120.939 16.5795 120.068 16.298 119.018 16.298C117.959 16.298 117.081 16.5795 116.383 17.1423C115.693 17.7052 115.179 18.4519 114.841 19.3825C114.511 20.3056 114.346 21.3188 114.346 22.422C114.346 23.5327 114.511 24.5496 114.841 25.4727C115.179 26.3958 115.693 27.135 116.383 27.6904C117.081 28.2457 117.959 28.5234 119.018 28.5234ZM134.19 20.7334V31H130.824V13.7089H134.054V16.5232H134.268C134.666 15.6076 135.289 14.8721 136.137 14.3168C136.993 13.7614 138.07 13.4837 139.368 13.4837C140.546 13.4837 141.578 13.7314 142.464 14.2267C143.349 14.7145 144.036 15.4425 144.524 16.4106C145.012 17.3787 145.255 18.5758 145.255 20.0017V31H141.89V20.4069C141.89 19.1536 141.563 18.1742 140.91 17.4688C140.257 16.7558 139.36 16.3993 138.22 16.3993C137.439 16.3993 136.745 16.5682 136.137 16.9059C135.537 17.2436 135.06 17.739 134.707 18.3919C134.362 19.0373 134.19 19.8178 134.19 20.7334Z" fill="white"/>
<defs>
<clipPath id="clip0_4069_1080">
<rect width="35" height="38" fill="white" transform="translate(0.814453)"/>
</clipPath>
</defs>
</svg>
